# xmcd
#
# Track frame offsets:
#	150
#	1172
#	3232
#	7270
#	19885
#	29320
#	40567
#	49405
#	58165
#	68285
#	77850
#	86900
#	96015
#	98087
#	110377
#	123420
#	135022
#	144007
#	145950
#	157897
#	167002
#	176710
#	179880
#	191687
#	204377
#	213187
#	221657
#	233032
#	240485
#	253332
#	263297
#	271480
#	280962
#	283080
#
# Disc length: 3907 seconds
#
# Revision: 18
# Processed by: cddbd v1.5.1PL2 Copyright (c) Steve Scherf et al.
# Submitted via: MusicManager 7.3.0.0 
#
DISCID=d70f4122
DTITLE=Beatles - Live At The BBC [CD1]
DYEAR=1994
DGENRE=Rock
TTITLE0=Beatle Greetings (Speech)
TTITLE1=From Us To You
TTITLE2=Riding On A Bus (Speech)
TTITLE3=I Got A Woman
TTITLE4=Too Much Monkey Business
TTITLE5=Keep Your Hands Off My Baby
TTITLE6=I'll Be On My Way
TTITLE7=Young Blood
TTITLE8=A Shot Of Rhythm And Blues
TTITLE9=Sure To Fall (In Love With You)
TTITLE10=Some Other Guy
TTITLE11=Thank You Girl
TTITLE12=Sha La La La La! (Speech)
TTITLE13=Baby It's You
TTITLE14=That's All Right (Mama)
TTITLE15=Carol
TTITLE16=Soldier Of Love
TTITLE17=A Little Rhyme (Speech)
TTITLE18=Clarabella
TTITLE19=I'm Gonna Sit Right Down And Cry (Over You)
TTITLE20=Crying, Waiting, Hoping
TTITLE21=Dear Wack! (Speech)
TTITLE22=You Really Got A Hold On Me
TTITLE23=To Know Her Is To Love Her
TTITLE24=A Taste Of Honey
TTITLE25=Long Tall Sally
TTITLE26=I Saw Her Standing There
TTITLE27=The Honeymoon Song
TTITLE28=Johnny B. Goode
TTITLE29=Memphis, Tennessee
TTITLE30=Lucille
TTITLE31=Can't Buy Me Love
TTITLE32=From Fluff To You (Speech)
TTITLE33=Till There Was You
EXTD=
EXTT0=
EXTT1=
EXTT2=
EXTT3=
EXTT4=
EXTT5=
EXTT6=
EXTT7=
EXTT8=
EXTT9=
EXTT10=
EXTT11=
EXTT12=
EXTT13=
EXTT14=
EXTT15=
EXTT16=
EXTT17=
EXTT18=
EXTT19=
EXTT20=
EXTT21=
EXTT22=
EXTT23=
EXTT24=
EXTT25=
EXTT26=
EXTT27=
EXTT28=
EXTT29=
EXTT30=
EXTT31=
EXTT32=
EXTT33=
PLAYORDER=
